<?xml version="1.0" encoding="iso-8859-1"?>
<!-- Generator: Adobe Illustrator 19.0.0, SVG Export Plug-In . SVG Version: 6.00 Build 0)  -->
<svg version="1.1" id="Layer_1" xmlns="http://www.w3.org/2000/svg" xmlns:xlink="http://www.w3.org/1999/xlink" x="0px" y="0px"
	 viewBox="0 0 512 512" style="enable-background:new 0 0 512 512;" xml:space="preserve">
<path style="fill:#296B94;" d="M499.341,315.077h-33.758c0-64.433-23.8-125.547-67.168-172.865h-87.558v-33.758h101.995l4.974,5.143
	C470.387,167.913,499.341,239.47,499.341,315.077z"/>
<g>
	<polygon style="fill:#C8FEFF;" points="63.297,0 97.055,97.201 209.582,108.454 322.11,97.201 335.377,58.998 	"/>
	<path style="fill:#C8FEFF;" d="M322.11,153.465c51.009,35.592,84.396,94.692,84.396,161.612
		C406.506,423.835,318.34,512,209.582,512S12.659,423.835,12.659,315.077c0-66.92,33.387-126.02,84.396-161.612l112.527-11.253
		L322.11,153.465z"/>
</g>
<path style="fill:#8E4238;" d="M291.165,337.582c40.791,0,40.791-22.505,81.582-22.505c0,89.966-73.199,163.165-163.165,163.165
	S46.418,405.043,46.418,315.077c40.791,0,40.791,22.505,81.582,22.505s40.791-22.505,81.582-22.505S250.374,337.582,291.165,337.582
	z"/>
<rect x="97.055" y="97.201" style="fill:#3C95AB;" width="225.055" height="56.264"/>
<g>
</g>
<g>
</g>
<g>
</g>
<g>
</g>
<g>
</g>
<g>
</g>
<g>
</g>
<g>
</g>
<g>
</g>
<g>
</g>
<g>
</g>
<g>
</g>
<g>
</g>
<g>
</g>
<g>
</g>
</svg>
